<svg width="12" height="15" viewBox="0 0 12 15" fill="none" xmlns="http://www.w3.org/2000/svg">
<path d="M0.029294 5.01777C0.040206 4.88436 0.151801 4.78141 0.285838 4.78141C0.285838 4.78141 3.45084 4.77853 3.49716 4.70337C3.61102 4.5191 3.65529 3.08155 3.70079 2.8351C3.72035 2.72927 3.81259 2.65226 3.92048 2.65226H4.26782V1.97981C4.21758 1.93431 4.16529 1.88943 4.11072 1.84289C4.0679 1.80625 4.02404 1.76877 3.9806 1.73027C3.92521 1.74304 3.87024 1.7556 3.81506 1.76795C3.5929 1.81839 3.3833 1.86595 3.15867 1.92546C3.09958 1.94111 3.03946 1.95861 2.97604 1.97734C2.75739 2.04158 2.50928 2.11426 2.2445 2.11426C2.18994 2.11426 2.13579 2.11117 2.08329 2.105C1.65482 2.05496 1.20083 1.71401 1.21607 1.08376C1.22801 0.590443 1.60129 0.177215 2.08432 0.122859C2.13065 0.117712 2.17944 0.115035 2.22886 0.115035C2.55952 0.115035 2.91181 0.233424 3.2225 0.338018C3.34995 0.380844 3.4704 0.421405 3.5824 0.452083C3.61864 0.461966 3.65735 0.473496 3.69647 0.485232C3.78253 0.510968 3.89989 0.545765 3.95486 0.546794C3.9771 0.538558 4.02734 0.481732 4.0609 0.443847C4.13934 0.355107 4.23694 0.244542 4.39424 0.168773C4.5919 0.0734445 4.85709 0.0186768 5.12207 0.0186768C5.38706 0.0186768 5.63084 0.0707678 5.83076 0.169597C5.97344 0.240012 6.07701 0.342342 6.16822 0.432523C6.1954 0.459289 6.22175 0.485438 6.24769 0.509115C6.47809 0.476584 6.70581 0.40308 6.94526 0.32587C7.26996 0.22107 7.60577 0.112976 7.95682 0.112976C8.01838 0.112976 8.07974 0.11627 8.13883 0.123065C8.45364 0.158684 8.82034 0.424493 8.93955 0.703891C9.07111 1.01211 9.05897 1.33145 8.90516 1.60262C8.75322 1.8709 8.47114 2.0632 8.16909 2.10459C8.10815 2.11303 8.04432 2.11714 7.97947 2.11714C7.62636 2.11714 7.28108 1.99484 6.97656 1.88696C6.8557 1.84413 6.74163 1.80377 6.64075 1.77618C6.60657 1.76692 6.56971 1.75518 6.5308 1.74283C6.44803 1.71648 6.33479 1.68065 6.27611 1.68065C6.27302 1.68065 6.27137 1.68065 6.27137 1.68065C6.24667 1.686 6.2164 1.72348 6.16987 1.78401C6.11798 1.85134 6.05313 1.93555 5.95533 1.99979V2.65556C5.97592 2.65494 5.99733 2.65391 6.01957 2.65288C6.06198 2.65082 6.10583 2.64876 6.1499 2.64876C6.18757 2.64876 6.22072 2.6502 6.2512 2.6535C6.3525 2.664 6.43382 2.74162 6.44906 2.8423C6.48756 3.0972 6.64033 4.75011 6.7962 4.76494C6.88494 4.77338 9.53376 4.78017 9.6402 4.77914C9.74624 4.77811 9.85145 4.77708 9.9546 4.77708C10.3656 4.77708 10.7936 4.79232 11.1416 4.9035C11.5593 5.03692 11.8274 5.29861 11.9386 5.68137C12.0485 6.06021 11.9773 9.49781 11.9773 9.49781C11.9773 9.61085 11.9034 9.71071 11.7953 9.74386C11.3757 9.87213 10.8338 9.94275 10.2692 9.94275C9.76004 9.94275 9.27495 9.88242 8.90331 9.77309C8.8189 9.74818 8.75301 9.68209 8.72871 9.59747C8.66695 9.38334 8.75239 8.149 8.66962 8.00076C8.65562 7.98758 7.2016 7.87167 6.87999 7.89596C6.64816 7.91346 6.40665 8.00632 6.15093 8.10433C5.83344 8.22622 5.50504 8.35222 5.14678 8.35408H5.13958C4.80129 8.35408 4.48607 8.23239 4.18135 8.11483C3.91718 8.01291 3.66764 7.91676 3.40966 7.89576C3.18997 7.87805 0.420492 7.9077 0.240747 7.89596C0.10321 7.88711 -0.00282478 7.7714 5.72205e-05 7.63345C0.00705814 7.31164 -0.0127077 5.53086 0.0295 5.01675L0.029294 5.01777Z" fill="currentColor"/>
<path d="M9.67022 11.7924C9.86746 11.5074 10.0538 11.2381 10.16 10.9064C10.1996 10.7833 10.2712 10.698 10.3676 10.6599C10.4164 10.6406 10.4699 10.6367 10.521 10.6486C10.5609 10.6579 10.5922 10.6739 10.6153 10.689C10.6914 10.7196 10.7505 10.7857 10.7701 10.8695C10.8566 11.2416 11.0201 11.4858 11.2093 11.7685C11.2507 11.8304 11.2937 11.8945 11.3363 11.9608C11.5747 12.3322 12.3005 13.4622 11.5074 14.3057C11.2597 14.5692 10.8897 14.7204 10.4923 14.7204C10.095 14.7204 9.68875 14.5598 9.42314 14.2795C9.16495 14.0074 9.04018 13.6444 9.06201 13.2297C9.09413 12.6252 9.38711 12.2019 9.67022 11.7926V11.7924Z" fill="currentColor"/>
</svg>
